<?xml version="1.0" encoding="UTF-8" standalone="no"?>
<svg width="154px" height="192px" viewBox="0 0 154 192" version="1.1" xmlns="http://www.w3.org/2000/svg" xmlns:xlink="http://www.w3.org/1999/xlink" xmlns:sketch="http://www.bohemiancoding.com/sketch/ns">
    <!-- Generator: Sketch 3.3.3 (12081) - http://www.bohemiancoding.com/sketch -->
    <title>Shape</title>
    <desc>Created with Sketch.</desc>
    <defs></defs>
    <g id="Page-1" stroke="none" stroke-width="1" fill="none" fill-rule="evenodd" sketch:type="MSPage">
        <g id="All-Encompassing-Trip" sketch:type="MSLayerGroup" transform="translate(-206.000000, 0.000000)" fill="#000000">
            <g id="Group" sketch:type="MSShapeGroup">
                <path d="M217.409,189.852 C220.764,187.249 242.806,173.217 275.108,112.919 C294.076,111.939 306.692,109.363 313.48,107.573 C310.09,123.833 307.916,152.169 331.116,160.009 C342.411,162.915 351.969,136.375 351.824,132.799 C351.679,129.224 350.704,129.263 350.704,129.263 C350.704,129.263 339.784,158.32 331.448,153.449 C323.112,148.578 329.056,125.991 337.201,102.076 C345.346,78.161 359.974,37.522 359.442,24.414 C358.91,11.305 355.693,-0.507 341.23,0.08 C327.578,0.634 290.593,69.423 274.288,100.356 C265.529,101.946 256.71,103.881 248.698,106.219 C232.29,111.008 219.482,122.681 217.133,126.87 C217.133,126.87 215.772,133.436 218.189,132.85 C221.507,131.177 237.566,116.171 266.753,113.423 C231.5,170.908 216.413,186.105 208.588,189.071 C202.687,192.077 213.867,192.6 217.409,189.852 L217.409,189.852 Z M347.264,4.393 C352.361,9.092 325.569,71.702 317.179,94.659 C308.638,95.446 295.992,96.803 282.528,98.953 C298.445,70.335 338.674,-3.528 347.264,4.393 L347.264,4.393 Z" id="Shape"></path>
            </g>
        </g>
    </g>
</svg>