<?xml version="1.0" encoding="UTF-8"?>
<svg width="16px" height="16px" viewBox="0 0 16 16" version="1.1" xmlns="http://www.w3.org/2000/svg" xmlns:xlink="http://www.w3.org/1999/xlink">
  <style>
    path { fill: #000; }
    @media (prefers-color-scheme: dark) {
      path { fill: #fff; }
    }
  </style>
  <path d="M2.87836312,15.8501104 C3.1587584,15.6327271 5.00092611,14.460878 7.70057684,9.42523388 C9.28583395,9.34339151 10.3402205,9.128263 10.9075299,8.9787754 C10.6242095,10.3366906 10.4425167,12.7031043 12.3814647,13.3578433 C13.3254482,13.6005309 14.1242613,11.3841059 14.1121429,11.0854648 C14.1000244,10.7869072 14.0185385,10.7901642 14.0185385,10.7901642 C14.0185385,10.7901642 13.1058957,13.2167904 12.4092117,12.8100005 C11.7125276,12.4032105 12.2092995,10.5169109 12.8900206,8.51970652 C13.5707418,6.52250216 14.7932819,3.12863271 14.7488198,2.03394926 C14.7043577,0.939182297 14.4354959,-0.0472687961 13.2267457,0.00175311308 C12.0857751,0.0480191057 8.99474103,5.79276887 7.63204506,8.37606481 C6.90000863,8.50884988 6.16295768,8.6704468 5.49335203,8.86569931 C4.1220478,9.26564126 3.05161481,10.2404841 2.85529633,10.5903185 C2.85529633,10.5903185 2.74155028,11.1386624 2.94355189,11.089724 C3.22085488,10.9500073 4.56299131,9.69681693 7.00230485,9.46732424 C4.05602328,14.2680473 2.79512208,15.5371886 2.14114502,15.7848871 C1.64796692,16.035926 2.58233925,16.0796031 2.87836312,15.8501104 Z M13.7310393,0.361943052 C14.1570228,0.754368864 11.9178722,5.98309414 11.2166751,7.9002934 C10.5028581,7.96601784 9.44596431,8.07934446 8.32070589,8.2588966 C9.65097463,5.86893238 13.0131271,-0.299560428 13.7310393,0.361943052 Z" id="Shape"></path>
</svg>
