<?xml version="1.0" encoding="utf-8"?>
<!-- Generated by IcoMoon.io -->
<!DOCTYPE svg PUBLIC "-//W3C//DTD SVG 1.1//EN" "http://www.w3.org/Graphics/SVG/1.1/DTD/svg11.dtd">
<svg version="1.1" xmlns="http://www.w3.org/2000/svg" xmlns:xlink="http://www.w3.org/1999/xlink" width="11" height="14" viewBox="0 0 11 14">
<path fill="#444444" d="M10.883 9.492q-0.305 0.977-0.961 1.953-1.008 1.531-2.008 1.531-0.383 0-1.094-0.25-0.672-0.25-1.18-0.25-0.477 0-1.109 0.258-0.633 0.266-1.031 0.266-1.187 0-2.352-2.023-1.148-2.039-1.148-3.93 0-1.781 0.883-2.922 0.875-1.125 2.219-1.125 0.563 0 1.383 0.234 0.813 0.234 1.078 0.234 0.352 0 1.117-0.266 0.797-0.266 1.352-0.266 0.93 0 1.664 0.508 0.406 0.281 0.813 0.781-0.617 0.523-0.891 0.922-0.508 0.734-0.508 1.617 0 0.969 0.539 1.742t1.234 0.984zM7.945 0.328q0 0.477-0.227 1.062-0.234 0.586-0.727 1.078-0.422 0.422-0.844 0.563-0.289 0.086-0.813 0.133 0.023-1.164 0.609-2.008 0.578-0.836 1.953-1.156 0.008 0.023 0.020 0.086t0.020 0.086q0 0.031 0.004 0.078t0.004 0.078z"></path>
</svg>
