<?xml version="1.0" encoding="utf-8"?>
<!-- Generated by IcoMoon.io -->
<!DOCTYPE svg PUBLIC "-//W3C//DTD SVG 1.1//EN" "http://www.w3.org/Graphics/SVG/1.1/DTD/svg11.dtd">
<svg version="1.1" xmlns="http://www.w3.org/2000/svg" xmlns:xlink="http://www.w3.org/1999/xlink" width="22" height="28" viewBox="0 0 22 28">
<path fill="#444444" d="M6 21q0 1.25-0.875 2.125t-2.125 0.875-2.125-0.875-0.875-2.125 0.875-2.125 2.125-0.875 2.125 0.875 0.875 2.125zM14 22.922q0.031 0.438-0.266 0.75-0.281 0.328-0.734 0.328h-2.109q-0.391 0-0.672-0.258t-0.313-0.648q-0.344-3.578-2.883-6.117t-6.117-2.883q-0.391-0.031-0.648-0.313t-0.258-0.672v-2.109q0-0.453 0.328-0.734 0.266-0.266 0.672-0.266h0.078q2.5 0.203 4.781 1.258t4.047 2.836q1.781 1.766 2.836 4.047t1.258 4.781zM22 22.953q0.031 0.422-0.281 0.734-0.281 0.313-0.719 0.313h-2.234q-0.406 0-0.695-0.273t-0.305-0.664q-0.187-3.359-1.578-6.383t-3.617-5.25-5.25-3.617-6.383-1.594q-0.391-0.016-0.664-0.305t-0.273-0.68v-2.234q0-0.438 0.313-0.719 0.281-0.281 0.688-0.281h0.047q4.094 0.203 7.836 1.875t6.648 4.594q2.922 2.906 4.594 6.648t1.875 7.836z"></path>
</svg>
