<?xml version="1.0" encoding="utf-8"?>
<!-- Generated by IcoMoon.io -->
<!DOCTYPE svg PUBLIC "-//W3C//DTD SVG 1.1//EN" "http://www.w3.org/Graphics/SVG/1.1/DTD/svg11.dtd">
<svg version="1.1" xmlns="http://www.w3.org/2000/svg" xmlns:xlink="http://www.w3.org/1999/xlink" width="28" height="28" viewBox="0 0 28 28">
<path fill="#444444" d="M21.281 22.281v-10.125h-2.109q0.313 0.984 0.313 2.047 0 1.969-1 3.633t-2.719 2.633-3.75 0.969q-3.078 0-5.266-2.117t-2.188-5.117q0-1.062 0.313-2.047h-2.203v10.125q0 0.406 0.273 0.68t0.68 0.273h16.703q0.391 0 0.672-0.273t0.281-0.68zM16.844 13.953q0-1.937-1.414-3.305t-3.414-1.367q-1.984 0-3.398 1.367t-1.414 3.305 1.414 3.305 3.398 1.367q2 0 3.414-1.367t1.414-3.305zM21.281 8.328v-2.578q0-0.438-0.313-0.758t-0.766-0.32h-2.719q-0.453 0-0.766 0.32t-0.313 0.758v2.578q0 0.453 0.313 0.766t0.766 0.313h2.719q0.453 0 0.766-0.313t0.313-0.766zM24 5.078v17.844q0 1.266-0.906 2.172t-2.172 0.906h-17.844q-1.266 0-2.172-0.906t-0.906-2.172v-17.844q0-1.266 0.906-2.172t2.172-0.906h17.844q1.266 0 2.172 0.906t0.906 2.172z"></path>
</svg>
