<?xml version="1.0" encoding="utf-8"?>
<!-- Generated by IcoMoon.io -->
<!DOCTYPE svg PUBLIC "-//W3C//DTD SVG 1.1//EN" "http://www.w3.org/Graphics/SVG/1.1/DTD/svg11.dtd">
<svg version="1.1" xmlns="http://www.w3.org/2000/svg" xmlns:xlink="http://www.w3.org/1999/xlink" width="20" height="28" viewBox="0 0 20 28">
<path fill="#444444" d="M0 9.328q0-1.687 0.586-3.18t1.617-2.602 2.375-1.922 2.891-1.219 3.156-0.406q2.469 0 4.594 1.039t3.453 3.023 1.328 4.484q0 1.5-0.297 2.938t-0.938 2.766-1.563 2.336-2.266 1.609-2.953 0.602q-1.062 0-2.109-0.5t-1.5-1.375q-0.156 0.609-0.438 1.758t-0.367 1.484-0.32 1.109-0.406 1.109-0.5 0.977-0.719 1.211-0.969 1.352l-0.219 0.078-0.141-0.156q-0.234-2.453-0.234-2.938 0-1.437 0.336-3.227t1.039-4.492 0.812-3.172q-0.5-1.016-0.5-2.641 0-1.297 0.812-2.438t2.063-1.141q0.953 0 1.484 0.633t0.531 1.602q0 1.031-0.688 2.984t-0.688 2.922q0 0.984 0.703 1.633t1.703 0.648q0.859 0 1.594-0.391t1.227-1.062 0.875-1.484 0.594-1.727 0.313-1.734 0.102-1.555q0-2.703-1.711-4.211t-4.461-1.508q-3.125 0-5.219 2.023t-2.094 5.133q0 0.688 0.195 1.328t0.422 1.016 0.422 0.711 0.195 0.477q0 0.438-0.234 1.141t-0.578 0.703q-0.031 0-0.266-0.047-0.797-0.234-1.414-0.875t-0.953-1.477-0.508-1.687-0.172-1.664z"></path>
</svg>
