<?xml version="1.0" encoding="utf-8"?>
<!-- Generated by IcoMoon.io -->
<!DOCTYPE svg PUBLIC "-//W3C//DTD SVG 1.1//EN" "http://www.w3.org/Graphics/SVG/1.1/DTD/svg11.dtd">
<svg version="1.1" xmlns="http://www.w3.org/2000/svg" xmlns:xlink="http://www.w3.org/1999/xlink" width="26" height="28" viewBox="0 0 26 28">
<path d="M23.734 12.125q0.969 0 1.617 0.633t0.648 1.586q0 1.516-1.453 2.031l-2.688 0.922 0.875 2.609q0.109 0.328 0.109 0.734 0 0.922-0.656 1.594t-1.578 0.672q-0.734 0-1.336-0.422t-0.836-1.125l-0.859-2.578-4.844 1.656 0.859 2.562q0.125 0.375 0.125 0.734 0 0.922-0.656 1.594t-1.594 0.672q-0.734 0-1.328-0.422t-0.828-1.125l-0.859-2.547-2.391 0.828q-0.453 0.141-0.781 0.141-0.953 0-1.586-0.625t-0.633-1.578q0-0.734 0.43-1.328t1.117-0.828l2.438-0.828-1.641-4.891-2.438 0.844q-0.406 0.125-0.75 0.125-0.938 0-1.578-0.633t-0.641-1.57q0-0.734 0.43-1.328t1.117-0.828l2.453-0.828-0.828-2.484q-0.125-0.375-0.125-0.734 0-0.938 0.656-1.602t1.594-0.664q0.734 0 1.328 0.422t0.828 1.125l0.844 2.5 4.844-1.641-0.844-2.5q-0.125-0.375-0.125-0.734 0-0.922 0.664-1.594t1.586-0.672q0.734 0 1.336 0.43t0.836 1.117l0.828 2.516 2.531-0.859q0.328-0.094 0.672-0.094 0.938 0 1.602 0.617t0.664 1.539q0 0.703-0.469 1.273t-1.156 0.805l-2.453 0.844 1.641 4.937 2.562-0.875q0.375-0.125 0.719-0.125zM11.328 16.219l4.844-1.641-1.641-4.922-4.844 1.672z"></path>
</svg>
