<?xml version="1.0" encoding="utf-8"?>
<!-- Generated by IcoMoon.io -->
<!DOCTYPE svg PUBLIC "-//W3C//DTD SVG 1.1//EN" "http://www.w3.org/Graphics/SVG/1.1/DTD/svg11.dtd">
<svg version="1.1" xmlns="http://www.w3.org/2000/svg" xmlns:xlink="http://www.w3.org/1999/xlink" width="16" height="28" viewBox="0 0 16 28">
<path fill="#444444" d="M14.75 20.766l1.25 3.703q-0.359 0.547-1.734 1.031t-2.766 0.5q-1.625 0.031-2.977-0.406t-2.227-1.156-1.484-1.656-0.867-1.875-0.258-1.844v-8.5h-2.625v-3.359q1.125-0.406 2.016-1.086t1.422-1.406 0.906-1.594 0.531-1.547 0.234-1.383q0.016-0.078 0.070-0.133t0.117-0.055h3.813v6.625h5.203v3.937h-5.219v8.094q0 0.469 0.102 0.875t0.352 0.82 0.773 0.648 1.273 0.219q1.219-0.031 2.094-0.453z"></path>
</svg>
