<!-- Generated by IcoMoon.io -->
<svg version="1.1" xmlns="http://www.w3.org/2000/svg" width="24" height="28" viewBox="0 0 24 28">
<path d="M17.75 22.828l-0.969-2.859c-0.375 0.187-1.078 0.344-1.609 0.344-1.594 0.047-1.922-1.109-1.922-1.969v-6.219h4.016v-3.031h-4v-5.094h-2.938c-0.047 0-0.125 0.047-0.141 0.156-0.172 1.547-0.906 4.297-3.938 5.391v2.578h2.031v6.531c0 2.234 1.641 5.422 6 5.344 1.469-0.031 3.109-0.641 3.469-1.172zM24 6.5v15c0 2.484-2.016 4.5-4.5 4.5h-15c-2.484 0-4.5-2.016-4.5-4.5v-15c0-2.484 2.016-4.5 4.5-4.5h15c2.484 0 4.5 2.016 4.5 4.5z"></path>
</svg>
